<?xml version="1.0" encoding="utf-8"?>
<!-- Generator: Adobe Illustrator 15.0.0, SVG Export Plug-In . SVG Version: 6.00 Build 0)  -->
<!DOCTYPE svg PUBLIC "-//W3C//DTD SVG 1.1//EN" "http://www.w3.org/Graphics/SVG/1.1/DTD/svg11.dtd">
<svg version="1.1"
	 id="Layer_1" xmlns:inkscape="http://www.inkscape.org/namespaces/inkscape" xmlns:sodipodi="http://sodipodi.sourceforge.net/DTD/sodipodi-0.dtd" xmlns:svg="http://www.w3.org/2000/svg" xmlns:rdf="http://www.w3.org/1999/02/22-rdf-syntax-ns#" xmlns:cc="http://creativecommons.org/ns#" xmlns:dc="http://purl.org/dc/elements/1.1/"
	 xmlns="http://www.w3.org/2000/svg" xmlns:xlink="http://www.w3.org/1999/xlink" x="0px" y="0px" width="350px" height="350px"
	 viewBox="548.901 10.675 350 350" enable-background="new 548.901 10.675 350 350" xml:space="preserve">
<g transform="translate(0,-952.36218)">
	<path d="M601.698,1040.372c-4.036,0.393-7.118,3.869-7.097,8.023v134.006l-42.004,70.326c-2.298,3.756-1.187,8.708,2.48,11.06
		c1.273,0.818,2.753,1.245,4.255,1.227h329.136c4.329,0.05,7.877-3.495,7.932-7.929c0.021-1.54-0.397-3.054-1.196-4.357
		l-42.002-70.328v-134.004c0-4.432-3.504-8.023-7.833-8.023h-242.93C602.187,1040.36,601.946,1040.36,601.698,1040.372
		L601.698,1040.372z M610.275,1056.417h227.256v120.345H610.275V1056.417z M606.843,1192.806h234.112l33.554,56.159h-94.651
		l-13.591-31.34c-1.247-2.875-4.026-4.738-7.103-4.762h-70.528c-0.248-0.014-0.488-0.014-0.734,0
		c-2.804,0.298-5.236,2.119-6.368,4.762l-13.588,31.34h-94.651L606.843,1192.806z M693.66,1228.907h60.48l8.695,20.058h-77.875
		L693.66,1228.907z"/>
</g>
</svg>
