<svg xmlns="http://www.w3.org/2000/svg" xmlns:xlink="http://www.w3.org/1999/xlink" version="1.1" x="0px" y="0px" viewBox="0 0 64 80" style="enable-background:new 0 0 64 64;" xml:space="preserve"><style type="text/css">
	.st0{display:none;}
	.st1{display:inline;}
	.st2{fill:none;stroke:#B3B3B3;stroke-width:0.1;stroke-miterlimit:10;}
</style><g class="st0"><g class="st1"><rect x="2" y="2" class="st2" width="60" height="60"/><line class="st2" x1="32" y1="2" x2="32" y2="62"/><line class="st2" x1="62" y1="32" x2="2" y2="32"/><line class="st2" x1="2" y1="2" x2="62" y2="62"/><rect x="10" y="10" class="st2" width="44" height="44"/><line class="st2" x1="62" y1="2" x2="2" y2="62"/><line class="st2" x1="2" y1="32" x2="32" y2="2"/><line class="st2" x1="32" y1="2" x2="62" y2="32"/><line class="st2" x1="62" y1="32" x2="32" y2="62"/><line class="st2" x1="32" y1="62" x2="2" y2="32"/><circle class="st2" cx="32" cy="32" r="21"/></g></g><path d="M50.2,19c-1.1-1.8-3-3-5.2-3c-0.5,0-0.9,0.1-1.4,0.2C41.4,11.8,37,9,32,9c-4.5,0-8.6,2.3-11,6.1C20.6,15,20.3,15,20,15  c-2.6,0-4.8,1.6-5.7,4c-0.1,0-0.2,0-0.3,0C7.5,19,2,24.7,2,31.5S7.5,44,14,44h4v1c0,0.8,0.3,1.5,0.7,2c-0.5,0.5-0.7,1.2-0.7,2v4  c0,1.7,1.3,3,3,3h23c1.7,0,3-1.3,3-3v-4c0-0.8-0.3-1.5-0.7-2c0.5-0.5,0.7-1.2,0.7-2v-1h3c6.5,0,12-5.7,12-12.5  C62,24.8,56.6,19.1,50.2,19z M20,37v-4c0-0.6,0.4-1,1-1h23c0.6,0,1,0.4,1,1v4c0,0.6-0.4,1-1,1H21C20.4,38,20,37.6,20,37z M45,53  c0,0.6-0.4,1-1,1H21c-0.6,0-1-0.4-1-1v-4c0-0.6,0.4-1,1-1h23c0.6,0,1,0.4,1,1V53z M45,45c0,0.6-0.4,1-1,1H21c-0.6,0-1-0.4-1-1v-4  c0-0.6,0.4-1,1-1h23c0.6,0,1,0.4,1,1V45z M50,42h-3v-1c0-0.8-0.3-1.5-0.7-2c0.5-0.5,0.7-1.2,0.7-2v-4c0-1.7-1.3-3-3-3H21  c-1.7,0-3,1.3-3,3v4c0,0.8,0.3,1.5,0.7,2c-0.5,0.5-0.7,1.2-0.7,2v1h-4C8.6,42,4,37.2,4,31.5S8.6,21,14,21c0.3,0,0.7,0,1,0.1l0.9,0.1  l0.2-0.9c0.4-1.9,2-3.2,3.9-3.2c0.4,0,0.7,0.1,1.2,0.2l0.8,0.2l0.4-0.7C24.3,13.2,28,11,32,11c4.5,0,8.4,2.7,10.2,6.8l0.4,0.9  l0.9-0.4c0.5-0.2,1-0.3,1.5-0.3c1.6,0,3,0.9,3.7,2.4L49,21h0.9c0.1,0,0.1,0,0.2,0c5.4,0,10,4.8,10,10.5S55.4,42,50,42z"/><circle cx="36" cy="36" r="1"/><circle cx="39" cy="36" r="1"/><circle cx="42" cy="36" r="1"/><circle cx="36" cy="44" r="1"/><circle cx="39" cy="44" r="1"/><circle cx="42" cy="44" r="1"/><circle cx="36" cy="52" r="1"/><circle cx="39" cy="52" r="1"/><circle cx="42" cy="52" r="1"/></svg>