<?xml version="1.0" encoding="utf-8"?>
<!-- Generator: Adobe Illustrator 15.0.0, SVG Export Plug-In . SVG Version: 6.00 Build 0)  -->
<!DOCTYPE svg PUBLIC "-//W3C//DTD SVG 1.1//EN" "http://www.w3.org/Graphics/SVG/1.1/DTD/svg11.dtd">
<svg version="1.1"
	 id="Layer_1" xmlns:inkscape="http://www.inkscape.org/namespaces/inkscape" xmlns:sodipodi="http://sodipodi.sourceforge.net/DTD/sodipodi-0.dtd" xmlns:svg="http://www.w3.org/2000/svg" xmlns:rdf="http://www.w3.org/1999/02/22-rdf-syntax-ns#" xmlns:cc="http://creativecommons.org/ns#" xmlns:dc="http://purl.org/dc/elements/1.1/"
	 xmlns="http://www.w3.org/2000/svg" xmlns:xlink="http://www.w3.org/1999/xlink" x="0px" y="0px" width="350px" height="350px"
	 viewBox="522.999 -36.624 350 350" enable-background="new 522.999 -36.624 350 350" xml:space="preserve">
<g transform="translate(0,-952.36218)">
	<path d="M697.588,972.354c-1.054,0.041-2.088,0.293-3.043,0.74l-92.104,44.408c-2.709,1.318-4.432,4.061-4.44,7.072v8.388
		c-0.062,4.36,3.423,7.945,7.782,8.006c4.359,0.062,7.944-3.423,8.007-7.783c0.001-0.075,0.001-0.149,0-0.223v-3.372L698,988.966
		l84.21,40.625v30.592c0,58.671-34.413,108.699-84.21,132.154c-49.794-23.455-84.21-73.485-84.21-132.154
		c0.062-4.36-3.423-7.945-7.783-8.006c-4.361-0.062-7.944,3.423-8.006,7.784c-0.002,0.074-0.002,0.148,0,0.223
		c0,66.262,39.664,123.072,96.792,148.271c2.042,0.908,4.372,0.908,6.414,0c57.132-25.197,96.792-82.009,96.792-148.271v-35.608
		c-0.01-3.011-1.732-5.754-4.44-7.072l-92.104-44.408C700.249,972.525,698.918,972.27,697.588,972.354z M744.627,1051.219
		c-1.768,0.192-3.42,0.973-4.688,2.221l-55.017,52.549l-23.438-23.438c-2.868-3.285-7.856-3.623-11.142-0.754
		c-3.286,2.869-3.622,7.855-0.754,11.141c0.221,0.254,0.458,0.494,0.71,0.717l28.947,28.947c3.021,3.032,7.909,3.105,11.021,0.163
		l60.525-57.894c3.201-2.961,3.397-7.956,0.438-11.157C749.546,1051.889,747.098,1050.965,744.627,1051.219z"/>
</g>
</svg>
