<?xml version="1.0" encoding="utf-8"?>
<!-- Generator: Adobe Illustrator 15.0.0, SVG Export Plug-In . SVG Version: 6.00 Build 0)  -->
<!DOCTYPE svg PUBLIC "-//W3C//DTD SVG 1.1//EN" "http://www.w3.org/Graphics/SVG/1.1/DTD/svg11.dtd">
<svg version="1.1"
	 id="Layer_1" xmlns:inkscape="http://www.inkscape.org/namespaces/inkscape" xmlns:sodipodi="http://sodipodi.sourceforge.net/DTD/sodipodi-0.dtd" xmlns:svg="http://www.w3.org/2000/svg" xmlns:rdf="http://www.w3.org/1999/02/22-rdf-syntax-ns#" xmlns:cc="http://creativecommons.org/ns#" xmlns:dc="http://purl.org/dc/elements/1.1/"
	 xmlns="http://www.w3.org/2000/svg" xmlns:xlink="http://www.w3.org/1999/xlink" x="0px" y="0px" width="350px" height="350px"
	 viewBox="590.935 24 350 350" enable-background="new 590.935 24 350 350" xml:space="preserve">
<g transform="translate(0,-952.36218)">
	<path d="M764.895,976.41c-4.901,0.451-8.582,3.956-8.475,8.075v31.802c-0.074,4.391,4.127,8.001,9.382,8.062
		c5.257,0.062,9.577-3.447,9.651-7.838c0-0.075,0-0.149,0-0.225v-31.803c0.114-4.389-4.055-8.026-9.31-8.12
		C765.728,976.356,765.312,976.371,764.895,976.41z M674.786,996.286c-5.243,0.308-9.196,4.109-8.826,8.49
		c0.114,1.36,0.644,2.67,1.539,3.809l23.793,31.802c2.446,3.887,8.201,5.382,12.854,3.339c4.652-2.043,6.44-6.851,3.994-10.738
		c-0.23-0.367-0.495-0.716-0.79-1.048l-23.791-31.802C681.728,997.583,678.343,996.097,674.786,996.286L674.786,996.286z
		 M855.901,996.286c-3.135,0.16-5.972,1.601-7.585,3.851l-23.79,31.802c-3.14,3.523-2.266,8.504,1.952,11.126
		c4.216,2.62,10.18,1.892,13.318-1.632c0.296-0.331,0.559-0.682,0.788-1.047l23.791-31.802c2.883-3.673,1.655-8.602-2.741-11.008
		C859.934,996.648,857.925,996.195,855.901,996.286L855.901,996.286z M765.937,1043.245c-54.508,0-98.736,46.707-98.736,104.23
		c0,37.199,18.562,69.868,46.396,88.325v62.737c0,15.278,15.021,27.825,33.308,27.825h38.066c18.29,0,33.308-12.547,33.308-27.825
		V1235.8c27.834-18.457,46.396-51.125,46.396-88.325C864.673,1089.953,820.445,1043.246,765.937,1043.245L765.937,1043.245z
		 M765.937,1060.886c45.356,0,82.079,38.726,82.079,86.589c0,44.445-31.73,80.975-72.564,85.966v-28.076l46.098-61.617
		c3.139-3.521,2.263-8.504-1.953-11.125c-4.218-2.623-10.18-1.892-13.318,1.632c-0.295,0.331-0.558,0.683-0.788,1.046l-2.229,2.857
		l-33.013-13.79c-1.746-0.725-3.72-0.986-5.649-0.746c-1.033,0.11-2.039,0.363-2.975,0.746l-33.009,13.79l-2.23-2.857
		c-1.832-2.554-5.218-4.04-8.774-3.85c-5.241,0.308-9.193,4.106-8.826,8.489c0.116,1.356,0.644,2.67,1.541,3.809l46.098,61.616
		v28.077c-40.831-4.99-72.564-41.521-72.564-85.967C683.856,1099.61,720.583,1060.886,765.937,1060.886L765.937,1060.886z
		 M765.937,1140.516l27.211,11.307l-27.211,36.396l-27.211-36.396L765.937,1140.516z M732.629,1245.614
		c10.422,3.951,21.607,6.089,33.308,6.089c11.698,0,22.886-2.138,33.308-6.089v25.094h-66.617v-25.094H732.629z M732.629,1286.61
		h66.617v11.927c0,6.742-6.203,11.924-14.276,11.924h-38.066c-8.073,0-14.274-5.182-14.274-11.924V1286.61z"/>
</g>
</svg>
