<svg xmlns="http://www.w3.org/2000/svg" xmlns:xlink="http://www.w3.org/1999/xlink" version="1.1" x="0px" y="0px" viewBox="0 0 64 80" style="enable-background:new 0 0 64 64;" xml:space="preserve"><style type="text/css">
	.st0{display:none;}
	.st1{display:inline;}
	.st2{fill:none;stroke:#B3B3B3;stroke-width:0.1;stroke-miterlimit:10;}
</style><g class="st0"><g class="st1"><rect x="2" y="2" class="st2" width="60" height="60"/><line class="st2" x1="32" y1="2" x2="32" y2="62"/><line class="st2" x1="62" y1="32" x2="2" y2="32"/><line class="st2" x1="2" y1="2" x2="62" y2="62"/><rect x="10" y="10" class="st2" width="44" height="44"/><line class="st2" x1="62" y1="2" x2="2" y2="62"/><line class="st2" x1="2" y1="32" x2="32" y2="2"/><line class="st2" x1="32" y1="2" x2="62" y2="32"/><line class="st2" x1="62" y1="32" x2="32" y2="62"/><line class="st2" x1="32" y1="62" x2="2" y2="32"/><circle class="st2" cx="32" cy="32" r="21"/></g></g><circle cx="7" cy="7" r="1"/><circle cx="11" cy="7" r="1"/><circle cx="15" cy="7" r="1"/><path d="M59,20h-3V2H2v50h32v7c0,1.7,1.3,3,3,3h22c1.7,0,3-1.3,3-3V23C62,21.3,60.7,20,59,20z M60,23v3H36v-3c0-0.6,0.4-1,1-1h22  C59.6,22,60,22.4,60,23z M36,28h24v22H36V28z M54,4v6H4V4H54z M4,50V12h50v8H37c-1.7,0-3,1.3-3,3v27H4z M59,60H37c-0.6,0-1-0.4-1-1  v-7h24v7C60,59.6,59.6,60,59,60z"/><circle cx="48" cy="56" r="2"/></svg>